<svg width="53" height="53" viewBox="0 0 53 53" fill="none" xmlns="http://www.w3.org/2000/svg">
<rect x="0.769234" y="0.506401" width="51.4744" height="51.4744" rx="25.7372" stroke="#C9C7C5" stroke-width="0.935897"/>
<path d="M25.3101 21.5451C26.9733 21.5451 28.0952 22.2636 28.7349 22.864L31.2347 20.4232C29.6994 18.9961 27.7016 18.1202 25.3101 18.1202C21.846 18.1202 18.8542 20.1082 17.3976 23.0017L20.2615 25.226C20.9799 23.0903 22.9679 21.5451 25.3101 21.5451Z" fill="#1E4D9B"/>
<path d="M33.8131 27.1747C33.8131 26.4464 33.754 25.9149 33.6261 25.3638H25.3101V28.651H30.1915C30.093 29.4678 29.5616 30.6981 28.3806 31.5248L31.1756 33.69C32.8486 32.1448 33.8131 29.8714 33.8131 27.1747Z" fill="#1E4D9B"/>
<path d="M20.2713 28.7297C20.0843 28.1785 19.9761 27.588 19.9761 26.9778C19.9761 26.3676 20.0843 25.7772 20.2615 25.226L17.3976 23.0017C16.7973 24.2025 16.4528 25.5508 16.4528 26.9778C16.4528 28.4049 16.7973 29.7532 17.3976 30.954L20.2713 28.7297Z" fill="#1E4D9B"/>
<path d="M25.3101 35.8355C27.7016 35.8355 29.7092 35.0482 31.1756 33.69L28.3806 31.5248C27.6327 32.0464 26.6288 32.4105 25.3101 32.4105C22.9678 32.4105 20.9799 30.8654 20.2713 28.7297L17.4074 30.9539C18.864 33.8475 21.8459 35.8355 25.3101 35.8355Z" fill="#1E4D9B"/>
<path d="M25.0688 21.2454C26.732 21.2454 27.854 21.9639 28.4937 22.5642L30.9934 20.1234C29.4581 18.6964 27.4603 17.8204 25.0688 17.8204C21.6047 17.8204 18.6129 19.8085 17.1563 22.702L20.0202 24.9263C20.7386 22.7906 22.7266 21.2454 25.0688 21.2454Z" fill="#1E4D9B"/>
<path d="M33.5718 26.875C33.5718 26.1467 33.5128 25.6152 33.3848 25.064H25.0688V28.3512H29.9502C29.8518 29.1681 29.3203 30.3983 28.1393 31.2251L30.9343 33.3903C32.6073 31.8451 33.5718 29.5716 33.5718 26.875Z" fill="#1E4D9B"/>
<path d="M20.03 28.4299C19.843 27.8788 19.7348 27.2883 19.7348 26.6781C19.7348 26.0679 19.8431 25.4774 20.0202 24.9263L17.1563 22.702C16.556 23.9027 16.2115 25.251 16.2115 26.6781C16.2115 28.1052 16.556 29.4535 17.1563 30.6542L20.03 28.4299Z" fill="#1E4D9B"/>
<path d="M25.0688 35.5358C27.4603 35.5358 29.4679 34.7484 30.9343 33.3903L28.1393 31.2251C27.3914 31.7467 26.3875 32.1108 25.0688 32.1108C22.7265 32.1108 20.7386 30.5656 20.03 28.4299L17.1661 30.6542C18.6227 33.5477 21.6046 35.5358 25.0688 35.5358Z" fill="#1E4D9B"/>
</svg>
